# xmcd
#
# Track frame offsets:
#	150
#	17422
#	28502
#	47587
#	68197
#	85535
#	97452
#	108435
#	125755
#	135040
#	148130
#	171580
#	183197
#	198672
#	216167
#	233395
#	247447
#	262597
#	277695
#	290272
#
# Disc length: 4023 seconds
#
# Revision: 1
# Processed by: cddbd v1.5.2PL0 Copyright (c) Steve Scherf et al.
# Submitted via: audiograbber 1.83.01
#
DISCID=1b0fb514
DTITLE=Philomena Begley - The very best of
DYEAR=1900
DGENRE=Irsk
TTITLE0=Blanket on the ground
TTITLE1=leaving on your mind
TTITLE2=Queen of the silver dollar
TTITLE3=Red is the rose
TTITLE4=Galway Bay
TTITLE5=The key's in the mailbox
TTITLE6=Every second
TTITLE7=look at us
TTITLE8=Truck drivin' woman
TTITLE9=Just one time
TTITLE10=Home I'll be
TTITLE11=Walkin, talkin, cryin, barely, beatin, broken heart
TTITLE12=One is one too many
TTITLE13=Our wedding day
TTITLE14=Gold and silver days
TTITLE15=A picture of me without you
TTITLE16=Last rose of summer
TTITLE17=Here today gone tomorrow
TTITLE18=Jeannie's afraid of the dark
TTITLE19=Bing bang boom
EXTD=
EXTT0=
EXTT1=
EXTT2=
EXTT3=
EXTT4=
EXTT5=
EXTT6=
EXTT7=
EXTT8=
EXTT9=
EXTT10=
EXTT11=
EXTT12=
EXTT13=
EXTT14=
EXTT15=
EXTT16=
EXTT17=
EXTT18=
EXTT19=
PLAYORDER=
